<?xml version="1.0" encoding="utf-8"?>
<!-- Generator: Adobe Illustrator 21.0.0, SVG Export Plug-In . SVG Version: 6.00 Build 0)  -->
<svg version="1.1" id="Layer_1" xmlns="http://www.w3.org/2000/svg" xmlns:xlink="http://www.w3.org/1999/xlink" x="0px" y="0px"
	 viewBox="0 0 15.4 18" style="enable-background:new 0 0 15.4 18;" xml:space="preserve">
<style type="text/css">
	.st0{fill:#172E81;}
</style>
<path class="st0" d="M11.1,0L11.1,0c0,0.3,0.1,4.3,4.2,4.5c0,3.7,0,0,0,3.1c-0.3,0-2.7-0.2-4.2-1.5v6c0,2.7-1.5,5.3-4.3,5.9
	c-0.8,0-1.5,0.1-2.7-0.2C-2.7,15.7-0.4,5.6,6.5,6.7c0,3.3,0,0,0,3.3c-2.8-0.4-3.8,1.9-3,3.6C4.2,15.1,7,15.5,8,13.3
	c0.1-0.4,0.2-0.9,0.2-1.5V0H11.1z"/>
</svg>
